<?xml version="1.0" encoding="utf-8"?>
<!-- Generator: Adobe Illustrator 24.1.0, SVG Export Plug-In . SVG Version: 6.00 Build 0)  -->
<svg version="1.1"
	 id="Layer_1" xmlns:cc="http://creativecommons.org/ns#" xmlns:dc="http://purl.org/dc/elements/1.1/" xmlns:inkscape="http://www.inkscape.org/namespaces/inkscape" xmlns:rdf="http://www.w3.org/1999/02/22-rdf-syntax-ns#" xmlns:sodipodi="http://sodipodi.sourceforge.net/DTD/sodipodi-0.dtd" xmlns:svg="http://www.w3.org/2000/svg"
	 xmlns="http://www.w3.org/2000/svg" xmlns:xlink="http://www.w3.org/1999/xlink" x="0px" y="0px" viewBox="0 0 202 80.8"
	 style="enable-background:new 0 0 202 80.8;" xml:space="preserve">
<style type="text/css">
	.st0{fill:#002E70;}
</style>
<sodipodi:namedview  bordercolor="#666666" borderopacity="1" fit-margin-bottom="1" fit-margin-left="1" fit-margin-right="1" fit-margin-top="1" gridtolerance="10" guidetolerance="10" id="namedview53" inkscape:current-layer="Layer_1" inkscape:cx="101.94501" inkscape:cy="32.114985" inkscape:pageopacity="0" inkscape:pageshadow="2" inkscape:window-height="681" inkscape:window-maximized="0" inkscape:window-width="1018" inkscape:window-x="0" inkscape:window-y="0" inkscape:zoom="0.39645207" objecttolerance="10" pagecolor="#ffffff" showgrid="false">
	</sodipodi:namedview>
<g id="g3" transform="translate(-319,-249)">
	
		<rect id="rect5" x="321.1" y="285.9" transform="matrix(0.9902 -0.1399 0.1399 0.9902 -36.7282 51.7663)" class="st0" width="57.5" height="2.4"/>
	
		<rect id="rect7" x="348.6" y="271.8" transform="matrix(5.920273e-02 -0.9982 0.9982 5.920273e-02 29.3049 631.7462)" class="st0" width="2.4" height="57.1"/>
	
		<rect id="rect9" x="348.6" y="281.3" transform="matrix(6.389721e-02 -0.998 0.998 6.389721e-02 18.3218 639.1091)" class="st0" width="2.4" height="57.1"/>
	
		<rect id="rect11" x="321.2" y="319" transform="matrix(0.9969 -7.830232e-02 7.830232e-02 0.9969 -23.9976 28.3743)" class="st0" width="57.1" height="2.4"/>
	<rect id="rect13" x="321.4" y="326" class="st0" width="57" height="2.4"/>
	<path id="path15" inkscape:connector-curvature="0" class="st0" d="M393.8,281.9h-7.4v21.7h6.9c7.2,0,10.7-3.7,10.7-11
		C403.9,285.5,400.5,281.9,393.8,281.9z M393.3,299.2h-1.1v-12.9h1.4c2.5,0,4.4,1.9,4.4,6C398.1,296.9,396.7,299.2,393.3,299.2z"/>
	<polygon id="polygon17" class="st0" points="417,294.6 417,290.4 411.3,290.4 411.3,286.3 417.6,286.3 417.8,281.9 405.5,281.9 
		405.5,303.6 418.5,303.6 418.5,299.2 411.3,299.2 411.3,294.6 	"/>
	<polygon id="polygon19" class="st0" points="434.2,286.3 434.2,281.9 419.3,281.9 419.3,286.3 423.8,286.3 423.8,303.6 
		429.6,303.6 429.6,286.3 	"/>
	<polygon id="polygon21" class="st0" points="454,281.9 448.8,292.5 453.8,303.6 460.5,303.6 454.7,292.1 459.6,281.9 	"/>
	<rect id="rect23" x="442.7" y="281.9" class="st0" width="5.8" height="21.7"/>
	<path id="path25" inkscape:connector-curvature="0" class="st0" d="M469.8,304c2.2,0,4.2-0.3,6.3-1.2v-11l-5.3,1.3v6.5
		c-3.8-0.3-5.3-3.2-5.3-6.7c0-4.3,1.9-7,4.9-7c1.4,0,3.2,0.5,4.2,1.1l1.6-3.7c-1.3-0.9-3.5-1.7-6.1-1.7c-5.6,0-10.6,3.6-10.6,11.3
		C459.6,300.1,463.9,304,469.8,304L469.8,304z"/>
	<polygon id="polygon27" class="st0" points="479,281.9 479,303.6 491.2,303.6 491.2,299.2 484.8,299.2 484.8,281.9 	"/>
	<path id="path29" inkscape:connector-curvature="0" class="st0" d="M397.2,316.9v-0.1c1.7-0.5,3.6-2.1,3.6-4.5c0-4.5-3.1-5.6-8-5.6
		h-6.4v21.7h6.4c5,0,8.4-2,8.4-6.7C401.1,319,399.5,317.3,397.2,316.9z M392.2,311.1h0.8c1.2,0,1.9,0.5,1.9,1.9
		c0,1.4-0.6,2.1-1.9,2.1h-0.8V311.1z M393,324h-0.8V319h1c1.4,0,2.1,0.6,2.1,2.4C395.3,323.3,394.5,324,393,324L393,324z"/>
	<rect id="rect31" x="403.1" y="306.7" class="st0" width="5.8" height="21.7"/>
	<path id="path33" inkscape:connector-curvature="0" class="st0" d="M422.2,316.9v-0.1c1.7-0.5,3.5-2.1,3.5-4.5c0-4.5-3.1-5.6-8-5.6
		h-6.4v21.7h6.4c5,0,8.4-2,8.4-6.7C426.2,319,424.6,317.3,422.2,316.9z M417.3,311.1h0.8c1.2,0,1.9,0.5,1.9,1.9
		c0,1.4-0.6,2.1-1.9,2.1h-0.8V311.1z M418.1,324h-0.8V319h1c1.4,0,2.1,0.6,2.1,2.4C420.4,323.3,419.6,324,418.1,324L418.1,324z"/>
	<polygon id="polygon35" class="st0" points="440.6,328.4 440.6,324 434.2,324 434.2,306.7 428.4,306.7 428.4,328.4 	"/>
	<rect id="rect37" x="442.7" y="306.7" class="st0" width="5.8" height="21.7"/>
	<path id="path39" inkscape:connector-curvature="0" class="st0" d="M460.3,306.3c-5.4,0-9.8,3.6-9.8,11.2c0,7.6,4.4,11.2,9.8,11.2
		s9.8-3.6,9.8-11.2C470.1,309.9,465.7,306.3,460.3,306.3z M460.3,324.4c-2.4,0-3.9-2.3-3.9-6.8c0-4.5,1.5-6.8,3.9-6.8
		s3.9,2.3,3.9,6.8C464.2,322,462.7,324.4,460.3,324.4z"/>
	<polygon id="polygon41" class="st0" points="481,328.4 481,311.1 485.6,311.1 485.6,306.7 470.6,306.7 470.6,311.1 475.2,311.1 
		475.2,328.4 	"/>
	<polygon id="polygon43" class="st0" points="493.2,315.2 493.2,311.1 499.4,311.1 499.7,306.7 487.4,306.7 487.4,328.4 
		500.4,328.4 500.4,324 493.2,324 493.2,319.4 498.9,319.4 498.9,315.2 	"/>
	<rect id="rect45" x="502.2" y="306.7" class="st0" width="5.8" height="21.7"/>
	<polygon id="polygon47" class="st0" points="508.3,317.2 513.3,328.4 520,328.4 514.3,316.8 519.1,306.7 513.5,306.7 	"/>
	<rect id="rect49" x="493" y="299.2" class="st0" width="4.4" height="4.4"/>
	<path id="path51" inkscape:connector-curvature="0" class="st0" d="M335.2,280.4c8.3,0,15.2-6.9,15.2-15.2
		c0-8.3-6.9-15.2-15.2-15.2c-8.3,0-15.2,6.9-15.2,15.2S326.9,280.4,335.2,280.4L335.2,280.4z M342.3,272.7l-8.1,1.6h8.1v1.2h-14.2
		v-1.2l8.5-1.6h-8.5v-1.2h14.2V272.7L342.3,272.7z M342.3,270.1h-14.2v-1.3h14.2V270.1z M334.5,267.1v-7.3c0-0.4,0.3-0.7,0.7-0.7
		c0.4,0,0.7,0.3,0.7,0.7v7.3H334.5z M342.8,261c-0.2,0-0.4,0-0.6,0.1l0,0l-0.4-1.2l0,0c0.4-0.1,0.9-0.2,1.3-0.2
		c0.7,0,1.2,0.2,1.7,0.6c0.4,0.4,0.6,1,0.6,1.6c0,1-0.5,2.3-1.5,4l-0.7,1.1h-1.6l0.6-1.2c1.1-2,1.5-3.1,1.5-3.9
		C343.8,261.5,343.7,261,342.8,261L342.8,261z M337.4,259.7c0.4-0.2,0.9-0.3,1.4-0.3c0.6,0,1.2,0.2,1.6,0.6c0.4,0.4,0.6,0.9,0.6,1.6
		c0,0.9-0.6,2.6-1.9,5.6l0,0h-1.5l0,0c0.6-1.3,1.9-4.3,1.9-5.5c0-0.6-0.3-0.9-0.9-0.9c-0.3,0-0.6,0.1-0.8,0.2l0,0L337.4,259.7
		L337.4,259.7L337.4,259.7z M333.6,255.4v-1h1v-1.8h1.2v1.8h1v1h-1v1.1c0.7,0.2,1.2,0.9,1.3,1.6c-0.6-0.2-1.2-0.3-2-0.3
		s-1.4,0.1-2,0.3c0.1-0.8,0.6-1.4,1.3-1.6v-1.1H333.6L333.6,255.4z M330,260c0.4-0.4,1-0.6,1.6-0.6c0.5,0,1,0.2,1.4,0.3l0,0
		l-0.4,1.2l0,0c-0.2-0.1-0.5-0.2-0.8-0.2c-0.6,0-0.9,0.3-0.9,0.9c0,1.1,1.3,4.2,1.9,5.5l0,0h-1.5l0,0c-1.4-3-1.9-4.6-1.9-5.6
		C329.3,260.9,329.6,260.4,330,260L330,260z M325.6,260.3c0.4-0.4,1-0.6,1.7-0.6c0.4,0,0.9,0.1,1.3,0.2l0,0l-0.4,1.2l0,0
		c-0.2,0-0.4-0.1-0.6-0.1c-0.9,0-1.1,0.6-1.1,1c0,0.8,0.4,1.9,1.5,3.9l0.6,1.2h-1.6l-0.7-1.1c-1-1.7-1.5-3.1-1.5-4
		C325,261.3,325.2,260.7,325.6,260.3L325.6,260.3z"/>
</g>
</svg>
